<svg xmlns="http://www.w3.org/2000/svg" width="2533" height="1339" viewBox="0 0 2533 1339"><rect width="100%" height="100%" fill="#DDDDDD"/><path fill="#999999" d="M613.145 676.775h30.96l.22.66q.43 25.7-15.7 40.74-16.13 15.04-44.79 15.04-28.76 0-46.7-18.49-17.94-18.48-17.94-47.58v-31.61q0-28.98 17.5-47.57 17.5-18.6 45.5-18.6 29.53 0 46.16 15.15 16.62 15.15 16.18 41.29l-.21.66h-31.07q0-15.75-7.54-24.12-7.55-8.37-23.52-8.37-14.33 0-22.75 11.65t-8.42 29.7v31.82q0 18.27 8.86 29.92 8.86 11.65 23.95 11.65 14.99 0 22.15-8.04 7.16-8.04 7.16-23.9Zm46.38-3.83v-2.3q0-26.46 14.76-43.36 14.77-16.9 40.91-16.9 26.25 0 41.13 16.84 14.87 16.85 14.87 43.42v2.3q0 26.69-14.82 43.48-14.82 16.79-40.96 16.79-26.25 0-41.07-16.79t-14.82-43.48Zm31.83-2.3v2.3q0 16.19 5.68 25.98 5.69 9.79 18.38 9.79 12.36 0 18.1-9.85 5.74-9.84 5.74-25.92v-2.3q0-15.75-5.79-25.7-5.8-9.95-18.27-9.95-12.36 0-18.1 10.01-5.74 10-5.74 25.64Zm99.53-58.07h29.64l1.31 15.64q5.69-8.53 14.28-13.18 8.58-4.65 19.85-4.65 11.37 0 19.47 5.03 8.09 5.03 12.25 15.2 5.46-9.51 14.21-14.87 8.75-5.36 20.57-5.36 17.5 0 27.61 12.08 10.12 12.09 10.12 36.81v71.64h-31.94v-71.75q0-13.45-4.37-18.7-4.38-5.25-13.02-5.25-6.78 0-11.75 3-4.98 3.01-7.93 8.37 0 2.08.1 3.56.11 1.47.11 3v77.77h-31.82v-71.75q0-13.13-4.38-18.54-4.37-5.41-13.12-5.41-6.46 0-11.32 2.46-4.87 2.46-8.04 6.94v86.3h-31.83v-118.34Zm227.39 0v118.34h-31.94v-118.34h31.94Zm0-52.29v23.96h-31.94v-23.96h31.94Zm25.7 52.29h29.75l1.42 16.95q5.91-9.08 14.55-14.11 8.64-5.03 19.36-5.03 17.94 0 28 11.26 10.06 11.27 10.06 35.33v73.94h-32.04v-73.83q0-11.92-4.82-16.9-4.81-4.97-14.54-4.97-6.35 0-11.38 2.57-5.03 2.57-8.42 7.27v85.86h-31.94v-118.34Zm122.06 62.45v-2.3q0-28 12.2-45.17t34.18-17.17q9.95 0 17.5 4.48 7.55 4.49 12.91 12.8l2.51-15.09h27.56v117.79q0 23.08-15.14 35.71-15.15 12.64-42.17 12.64-8.97 0-19.03-2.46t-18.59-6.73l5.9-23.84q7.33 3.5 14.93 5.3 7.6 1.81 16.57 1.81 13.13 0 19.31-5.47 6.18-5.47 6.18-17.07v-10.72q-5.25 6.68-12.36 10.18-7.11 3.5-16.3 3.5-21.76 0-33.96-16.03-12.2-16.02-12.2-42.16Zm31.94-2.3v2.3q0 15.53 5.25 24.44 5.25 8.92 17.06 8.92 7.33 0 12.42-2.68 5.08-2.68 8.15-7.82v-51.41q-3.07-5.36-8.15-8.31-5.09-2.95-12.2-2.95-11.7 0-17.11 10.39-5.42 10.39-5.42 27.12Zm219.19 25.6q0-5.25-5.09-9.08-5.08-3.83-18.86-6.78-21-4.27-31.67-12.64-10.66-8.36-10.66-22.8 0-15.31 12.85-25.98 12.85-10.66 34.4-10.66 22.64 0 36.04 10.61 13.4 10.61 12.85 26.79l-.22.66h-30.84q0-7.11-4.54-11.59-4.54-4.49-13.29-4.49-7.77 0-12.2 3.78-4.43 3.77-4.43 9.46 0 5.47 4.65 8.97 4.65 3.5 18.87 6.23 21.87 4.38 32.48 12.85 10.61 8.48 10.61 23.35 0 15.97-13.67 26.09t-36.09 10.12q-23.63 0-37.35-11.98-13.73-11.98-13.07-27.29l.21-.66h29.21q.33 9.52 6.23 13.79 5.91 4.26 15.42 4.26 8.86 0 13.51-3.5t4.65-9.51Zm46.59-25.38v-2.3q0-26.46 14.77-43.36t40.91-16.9q26.25 0 41.12 16.84 14.88 16.85 14.88 43.42v2.3q0 26.69-14.82 43.48-14.82 16.79-40.97 16.79-26.25 0-41.07-16.79t-14.82-43.48Zm31.83-2.3v2.3q0 16.19 5.69 25.98t18.37 9.79q12.36 0 18.11-9.85 5.74-9.84 5.74-25.92v-2.3q0-15.75-5.8-25.7t-18.26-9.95q-12.36 0-18.11 10.01-5.74 10-5.74 25.64Zm94.61 2.3v-2.3q0-26.46 14.77-43.36 14.76-16.9 40.9-16.9 26.25 0 41.13 16.84 14.87 16.85 14.87 43.42v2.3q0 26.69-14.82 43.48-14.82 16.79-40.96 16.79-26.25 0-41.07-16.79t-14.82-43.48Zm31.83-2.3v2.3q0 16.19 5.69 25.98 5.68 9.79 18.37 9.79 12.36 0 18.1-9.85 5.75-9.84 5.75-25.92v-2.3q0-15.75-5.8-25.7t-18.27-9.95q-12.36 0-18.1 10.01-5.74 10-5.74 25.64Zm98.98-58.07h29.75l1.43 16.95q5.9-9.08 14.54-14.11 8.64-5.03 19.36-5.03 17.94 0 28 11.26 10.06 11.27 10.06 35.33v73.94h-32.04v-73.83q0-11.92-4.81-16.9-4.82-4.97-14.55-4.97-6.35 0-11.38 2.57-5.03 2.57-8.42 7.27v85.86h-31.94v-118.34Zm162.43 90.34v28h-31.94v-28h31.94Zm65.18 0v28h-31.93v-28h31.93Zm65.19 0v28h-31.94v-28h31.94Z"/></svg>